<?xml version="1.0" encoding="UTF-8" standalone="no"?>
<svg width="512" height="512" viewBox="0 0 512 512" fill="none" xmlns="http://www.w3.org/2000/svg">
  <!-- ThingNix Firmware Analysis Icon -->
  <rect width="512" height="512" rx="60" fill="#1a1a1a"/>
  
  <!-- Circuit Board Background -->
  <g stroke="#4a86e8" stroke-width="2" opacity="0.2">
    <path d="M50 100 H 462" />
    <path d="M50 150 H 462" />
    <path d="M50 200 H 462" />
    <path d="M50 250 H 462" />
    <path d="M50 300 H 462" />
    <path d="M50 350 H 462" />
    <path d="M50 400 H 462" />
    
    <path d="M100 50 V 462" />
    <path d="M150 50 V 462" />
    <path d="M200 50 V 462" />
    <path d="M250 50 V 462" />
    <path d="M300 50 V 462" />
    <path d="M350 50 V 462" />
    <path d="M400 50 V 462" />
  </g>
  
  <!-- Chip Symbol -->
  <rect x="156" y="156" width="200" height="200" rx="20" fill="#2c2c2c" stroke="#4a86e8" stroke-width="6"/>
  
  <!-- Chip Pins -->
  <g fill="#4a86e8">
    <rect x="176" y="136" width="10" height="20" />
    <rect x="206" y="136" width="10" height="20" />
    <rect x="236" y="136" width="10" height="20" />
    <rect x="266" y="136" width="10" height="20" />
    <rect x="296" y="136" width="10" height="20" />
    <rect x="326" y="136" width="10" height="20" />
    
    <rect x="176" y="356" width="10" height="20" />
    <rect x="206" y="356" width="10" height="20" />
    <rect x="236" y="356" width="10" height="20" />
    <rect x="266" y="356" width="10" height="20" />
    <rect x="296" y="356" width="10" height="20" />
    <rect x="326" y="356" width="10" height="20" />
    
    <rect x="136" y="176" width="20" height="10" />
    <rect x="136" y="206" width="20" height="10" />
    <rect x="136" y="236" width="20" height="10" />
    <rect x="136" y="266" width="20" height="10" />
    <rect x="136" y="296" width="20" height="10" />
    <rect x="136" y="326" width="20" height="10" />
    
    <rect x="356" y="176" width="20" height="10" />
    <rect x="356" y="206" width="20" height="10" />
    <rect x="356" y="236" width="20" height="10" />
    <rect x="356" y="266" width="20" height="10" />
    <rect x="356" y="296" width="20" height="10" />
    <rect x="356" y="326" width="20" height="10" />
  </g>
  
  <!-- Binary Code Symbol -->
  <g fill="#f8f8f8" font-family="Courier New" font-weight="bold">
    <text x="176" y="206" font-size="16">10110101</text>
    <text x="176" y="226" font-size="16">01001010</text>
    <text x="176" y="246" font-size="16">11100111</text>
    <text x="176" y="266" font-size="16">00110110</text>
    <text x="176" y="286" font-size="16">10101010</text>
    <text x="176" y="306" font-size="16">01011101</text>
  </g>
  
  <!-- Magnifying Glass -->
  <circle cx="360" cy="360" r="70" fill="none" stroke="#ff5555" stroke-width="8"/>
  <path d="M410 410 L 460 460" stroke="#ff5555" stroke-width="12" stroke-linecap="round"/>
  <circle cx="360" cy="360" r="40" fill="none" stroke="#ff5555" stroke-width="4"/>
</svg>
