<?xml version="1.0" encoding="UTF-8" standalone="no"?>
<svg width="512" height="512" viewBox="0 0 512 512" fill="none" xmlns="http://www.w3.org/2000/svg">
  <!-- ThingNix Network/Exploitation Icon -->
  <rect width="512" height="512" rx="60" fill="#1a1a1a"/>
  
  <!-- Network Grid Background -->
  <g stroke="#4a86e8" stroke-width="1" opacity="0.1">
    <path d="M32 32 H 480 V 480 H 32 V 32 Z" />
    <path d="M32 96 H 480" />
    <path d="M32 160 H 480" />
    <path d="M32 224 H 480" />
    <path d="M32 288 H 480" />
    <path d="M32 352 H 480" />
    <path d="M32 416 H 480" />
    
    <path d="M96 32 V 480" />
    <path d="M160 32 V 480" />
    <path d="M224 32 V 480" />
    <path d="M288 32 V 480" />
    <path d="M352 32 V 480" />
    <path d="M416 32 V 480" />
  </g>
  
  <!-- Network Devices and Connections -->
  <g>
    <!-- Central Router -->
    <rect x="224" y="224" width="64" height="64" rx="5" fill="#2c2c2c" stroke="#4a86e8" stroke-width="4"/>
    <circle cx="256" cy="256" r="20" fill="#4a86e8"/>
    
    <!-- Network Devices -->
    <rect x="80" y="80" width="48" height="48" rx="5" fill="#2c2c2c" stroke="#4a86e8" stroke-width="3"/>
    <rect x="384" y="80" width="48" height="48" rx="5" fill="#2c2c2c" stroke="#4a86e8" stroke-width="3"/>
    <rect x="80" y="384" width="48" height="48" rx="5" fill="#2c2c2c" stroke="#4a86e8" stroke-width="3"/>
    <rect x="384" y="384" width="48" height="48" rx="5" fill="#2c2c2c" stroke="#4a86e8" stroke-width="3"/>
    
    <!-- IoT Devices -->
    <circle cx="160" cy="160" r="20" fill="#2c2c2c" stroke="#ff5555" stroke-width="3"/>
    <circle cx="352" cy="160" r="20" fill="#2c2c2c" stroke="#ff5555" stroke-width="3"/>
    <circle cx="160" cy="352" r="20" fill="#2c2c2c" stroke="#ff5555" stroke-width="3"/>
    <circle cx="352" cy="352" r="20" fill="#2c2c2c" stroke="#ff5555" stroke-width="3"/>
    
    <!-- Connection Lines -->
    <path d="M256 224 L 256 128 L 104 128" stroke="#4a86e8" stroke-width="2"/>
    <path d="M256 224 L 256 128 L 408 128" stroke="#4a86e8" stroke-width="2"/>
    <path d="M256 288 L 256 384 L 104 384" stroke="#4a86e8" stroke-width="2"/>
    <path d="M256 288 L 256 384 L 408 384" stroke="#4a86e8" stroke-width="2"/>
    
    <path d="M224 256 L 176 256 L 160 176" stroke="#4a86e8" stroke-width="2"/>
    <path d="M288 256 L 336 256 L 352 176" stroke="#4a86e8" stroke-width="2"/>
    <path d="M224 256 L 176 256 L 160 336" stroke="#4a86e8" stroke-width="2"/>
    <path d="M288 256 L 336 256 L 352 336" stroke="#4a86e8" stroke-width="2"/>
  </g>
  
  <!-- Attack Visualization -->
  <g>
    <!-- Attacker Node -->
    <circle cx="432" cy="176" r="24" fill="#ff5555"/>
    <path d="M420 164 L 444 188" stroke="#f8f8f8" stroke-width="4"/>
    <path d="M444 164 L 420 188" stroke="#f8f8f8" stroke-width="4"/>
    
    <!-- Attack Path -->
    <path d="M408 176 L 352 160" stroke="#ff5555" stroke-width="2" stroke-dasharray="5 5"/>
    <path d="M352 160 L 256 224" stroke="#ff5555" stroke-width="2" stroke-dasharray="5 5"/>
    <path d="M256 256 L 160 352" stroke="#ff5555" stroke-width="2" stroke-dasharray="5 5"/>
    
    <!-- Exploited Node -->
    <circle cx="160" cy="352" r="26" fill="none" stroke="#ff5555" stroke-width="3" stroke-dasharray="6 2"/>
    
    <!-- Data Packet Icons -->
    <g fill="#50fa7b" opacity="0.8">
      <circle cx="380" cy="168" r="5" />
      <circle cx="320" cy="180" r="5" />
      <circle cx="290" cy="210" r="5" />
      <circle cx="230" cy="280" r="5" />
      <circle cx="190" cy="320" r="5" />
    </g>
  </g>
  
  <!-- Network Lock/Security -->
  <g transform="translate(80, 80) scale(0.6)">
    <path d="M70 50 V 30 C 70 19 79 10 90 10 H 110 C 121 10 130 19 130 30 V 50" 
          stroke="#4a86e8" stroke-width="5" fill="none"/>
    <rect x="60" y="50" width="80" height="60" rx="5" fill="#2c2c2c" stroke="#4a86e8" stroke-width="5"/>
    <circle cx="100" cy="80" r="10" fill="#4a86e8"/>
    <path d="M100 90 L 100 100" stroke="#4a86e8" stroke-width="5"/>
  </g>
  
  <!-- Lock Broken -->
  <g transform="translate(384, 384) scale(0.6)">
    <path d="M70 50 L 70 30 C 70 19 79 10 90 10 H 110 C 121 10 130 19 130 30 L 120 50" 
          stroke="#ff5555" stroke-width="5" fill="none"/>
    <rect x="60" y="50" width="80" height="60" rx="5" fill="#2c2c2c" stroke="#ff5555" stroke-width="5"/>
    <path d="M80 80 L 120 80" stroke="#ff5555" stroke-width="5"/>
    <path d="M100 80 L 100 100" stroke="#ff5555" stroke-width="5"/>
  </g>
</svg>
