<?xml version="1.0" encoding="UTF-8" standalone="no"?>
<svg width="512" height="512" viewBox="0 0 512 512" fill="none" xmlns="http://www.w3.org/2000/svg">
  <!-- ThingNix SDR/RF Icon -->
  <rect width="512" height="512" rx="60" fill="#1a1a1a"/>
  
  <!-- Signal Grid Background -->
  <g stroke="#4a86e8" stroke-width="1" opacity="0.15">
    <path d="M50 50 H 462" />
    <path d="M50 90 H 462" />
    <path d="M50 130 H 462" />
    <path d="M50 170 H 462" />
    <path d="M50 210 H 462" />
    <path d="M50 250 H 462" />
    <path d="M50 290 H 462" />
    <path d="M50 330 H 462" />
    <path d="M50 370 H 462" />
    <path d="M50 410 H 462" />
    <path d="M50 450 H 462" />
    
    <path d="M50 50 V 462" />
    <path d="M90 50 V 462" />
    <path d="M130 50 V 462" />
    <path d="M170 50 V 462" />
    <path d="M210 50 V 462" />
    <path d="M250 50 V 462" />
    <path d="M290 50 V 462" />
    <path d="M330 50 V 462" />
    <path d="M370 50 V 462" />
    <path d="M410 50 V 462" />
    <path d="M450 50 V 462" />
  </g>
  
  <!-- Radio Tower -->
  <g>
    <path d="M256 120 L 216 280 L 296 280 L 256 120Z" fill="#2c2c2c" stroke="#4a86e8" stroke-width="6"/>
    <rect x="236" y="280" width="40" height="140" fill="#2c2c2c" stroke="#4a86e8" stroke-width="6"/>
    <!-- Base -->
    <rect x="196" y="420" width="120" height="20" rx="5" fill="#4a86e8"/>
    <rect x="216" y="440" width="80" height="10" rx="3" fill="#4a86e8"/>
  </g>
  
  <!-- RF Waves -->
  <g stroke="#50fa7b" stroke-width="4" stroke-linecap="round" fill="none">
    <path d="M136 200 Q 256 100 376 200" opacity="0.9"/>
    <path d="M156 230 Q 256 150 356 230" opacity="0.7"/>
    <path d="M176 260 Q 256 200 336 260" opacity="0.5"/>
  </g>
  
  <!-- Frequency Spectrum -->
  <g>
    <rect x="136" y="320" width="240" height="80" rx="5" fill="#2c2c2c" stroke="#ff5555" stroke-width="4"/>
    
    <!-- Spectrum lines -->
    <path d="M146 380 L 146 350 L 156 365 L 166 340 L 176 370 L 186 360 L 196 345 L 206 380 L 216 330 L 226 350 L 236 340 L 246 365 L 256 330 L 266 370 L 276 350 L 286 360 L 296 345 L 306 380 L 316 330 L 326 350 L 336 365 L 346 340 L 356 370 L 366 380" 
          stroke="#ff5555" stroke-width="2" fill="none"/>
          
    <!-- Cursor -->
    <path d="M256 320 L 256 400" stroke="#f8f8f8" stroke-width="2" stroke-dasharray="4 4"/>
    <circle cx="256" cy="330" r="4" fill="#f8f8f8"/>
  </g>
  
  <!-- Dongle -->
  <g>
    <rect x="396" y="350" width="60" height="30" rx="5" fill="#4a86e8"/>
    <rect x="406" y="380" width="40" height="20" rx="3" fill="#2c2c2c" stroke="#4a86e8" stroke-width="2"/>
    <circle cx="426" cy="365" r="8" fill="#ff5555"/>
  </g>
</svg>
