<?xml version="1.0" encoding="UTF-8" standalone="no"?>
<svg width="512" height="512" viewBox="0 0 512 512" fill="none" xmlns="http://www.w3.org/2000/svg">
  <!-- ThingNix Icon - Circuit Board with IoT Security Theme -->
  <rect width="512" height="512" rx="60" fill="#1a1a1a"/>
  
  <!-- Background Circuit Pattern -->
  <g stroke="#4a86e8" stroke-width="3" opacity="0.3">
    <path d="M 50 100 L 150 100 L 150 200 L 250 200 L 250 300 L 350 300 L 350 400 L 450 400" />
    <path d="M 50 200 L 100 200 L 100 300 L 200 300 L 200 400 L 300 400" />
    <path d="M 150 50 L 150 150 L 250 150 L 250 250 L 350 250 L 350 350 L 450 350" />
    <path d="M 200 50 L 200 100 L 300 100 L 300 200 L 400 200 L 400 300 L 450 300" />
    
    <!-- Circuit nodes -->
    <circle cx="150" cy="100" r="8" fill="#4a86e8"/>
    <circle cx="150" cy="200" r="8" fill="#4a86e8"/>
    <circle cx="250" cy="200" r="8" fill="#4a86e8"/>
    <circle cx="250" cy="300" r="8" fill="#4a86e8"/>
    <circle cx="350" cy="300" r="8" fill="#4a86e8"/>
    <circle cx="100" cy="200" r="8" fill="#4a86e8"/>
    <circle cx="100" cy="300" r="8" fill="#4a86e8"/>
    <circle cx="200" cy="300" r="8" fill="#4a86e8"/>
    <circle cx="200" cy="400" r="8" fill="#4a86e8"/>
    <circle cx="150" cy="150" r="8" fill="#4a86e8"/>
    <circle cx="250" cy="150" r="8" fill="#4a86e8"/>
    <circle cx="250" cy="250" r="8" fill="#4a86e8"/>
    <circle cx="350" cy="250" r="8" fill="#4a86e8"/>
    <circle cx="200" cy="100" r="8" fill="#4a86e8"/>
    <circle cx="300" cy="100" r="8" fill="#4a86e8"/>
    <circle cx="300" cy="200" r="8" fill="#4a86e8"/>
    <circle cx="400" cy="200" r="8" fill="#4a86e8"/>
  </g>
  
  <!-- Main Shield Shape -->
  <path d="M256 90C256 90 160 130 160 140V260C160 310 200 350 256 380C312 350 352 310 352 260V140C352 130 256 90 256 90Z" fill="#2c2c2c" stroke="#4a86e8" stroke-width="8"/>
  
  <!-- Lock Symbol -->
  <rect x="226" y="230" width="60" height="60" rx="10" fill="#ff5555"/>
  <rect x="236" y="190" width="40" height="50" rx="20" stroke="#f8f8f8" stroke-width="10" fill="none"/>
  
  <!-- Circuit Board Elements inside Shield -->
  <g stroke="#4a86e8" stroke-width="2" opacity="0.7">
    <path d="M190 210 L 230 210" />
    <path d="M282 210 L 322 210" />
    <path d="M190 240 L 210 240" />
    <path d="M302 240 L 322 240" />
    <path d="M256 300 L 256 330 L 300 330" />
    <path d="M256 300 L 256 330 L 212 330" />
    <circle cx="210" cy="240" r="5" fill="#4a86e8"/>
    <circle cx="302" cy="240" r="5" fill="#4a86e8"/>
    <circle cx="300" cy="330" r="5" fill="#4a86e8"/>
    <circle cx="212" cy="330" r="5" fill="#4a86e8"/>
  </g>
  
  <!-- RF Signal Waves -->
  <g stroke="#50fa7b" stroke-width="3" fill="none">
    <path d="M196 160 Q 256 120 316 160" opacity="0.8"/>
    <path d="M206 140 Q 256 110 306 140" opacity="0.6"/>
    <path d="M216 120 Q 256 100 296 120" opacity="0.4"/>
  </g>
</svg>